HIERARCHY
ROOT Hip
{
	OFFSET 0 0 0
	CHANNELS 6 Xposition Yposition Zposition Zrotation Yrotation Xrotation
	JOINT ShoulderCenter
	{
		OFFSET 0 0.4363 0
		CHANNELS 3 Zrotation Yrotation Xrotation
		JOINT Head
		{
			OFFSET 0 0.1849 0
			CHANNELS 3 Zrotation Yrotation Xrotation
			End Site
			{
				OFFSET 0.0 0.0891 0.0
			}
		}
		JOINT ShoulderRight
		{
			OFFSET -0.14 0 0
			CHANNELS 3 Zrotation Yrotation Xrotation
			JOINT ElbowRight
			{
				OFFSET -0.25 0 0
				CHANNELS 3 Zrotation Yrotation Xrotation
				JOINT WristRight
				{
					OFFSET -0.23 0 0
					CHANNELS 3 Zrotation Yrotation Xrotation
					End Site
					{
						OFFSET -0.0832 0.0 0.0
					}
				}
			}
		}
		JOINT ShoulderLeft
		{
			OFFSET 0.14 0 0
			CHANNELS 3 Zrotation Yrotation Xrotation
			JOINT ElbowLeft
			{
				OFFSET 0.25 0 0
				CHANNELS 3 Zrotation Yrotation Xrotation
				JOINT WristLeft
				{
					OFFSET 0.23 0 0
					CHANNELS 3 Zrotation Yrotation Xrotation
					End Site
					{
						OFFSET 0.0832 0.0 0.0
					}
				}
			}
		}
	}
	JOINT HipRight
	{
		OFFSET -0.0952 0 0
		CHANNELS 3 Zrotation Yrotation Xrotation
		JOINT KneeRight
		{
			OFFSET 0 -0.3732 0
			CHANNELS 3 Zrotation Yrotation Xrotation
			JOINT AnkleRight
			{
				OFFSET 0 -0.346 0
				CHANNELS 3 Zrotation Yrotation Xrotation
				End Site
				{
					OFFSET 0.0 0.0 0.0891
				}
			}
		}
	}
	JOINT HipLeft
	{
		OFFSET 0.0952 0 0
		CHANNELS 3 Zrotation Yrotation Xrotation
		JOINT KneeLeft
		{
			OFFSET 0 -0.3732 0
			CHANNELS 3 Zrotation Yrotation Xrotation
			JOINT AnkleLeft
			{
				OFFSET 0 -0.346 0
				CHANNELS 3 Zrotation Yrotation Xrotation
				End Site
				{
					OFFSET 0.0 0.0 0.0891
				}
			}
		}
	}
}
MOTION
Frames: 30
Frame Time: 0.033333
-0.000203217 1.05802 -1.81546 0.19858 -0.494105 1.9824 0.0261319 -3.17572e-05 -0.00121027 0 0 0 62.5102 -4.42455 30.6996 2.65858e-06 23.5219 2.29768e-06 0 0 0 -60.8301 -2.10098 33.7424 3.78303e-07 -23.4535 -1.82247e-06 0 0 0 1.23326 0.162576 2.95509 -4.64543 -0.180312 -3.01526 0 0 0 -2.2742 -0.142434 -6.12047 -1.28954 -0.526663 -8.33308 0 0 0 
0.00278926 1.05789 -1.81546 0.409687 -1.03512 1.72532 -0.000678534 -0.126417 0.0328824 0 0 0 63.0646 -3.10669 28.522 2.43369e-06 22.3792 5.70333e-06 -2.13443e-07 3.18055e-15 1.70755e-06 -61.7253 -1.39021 33.2919 1.52066 -19.5523 -0.274559 0 0 0 0.465284 0.141161 3.21582 -4.11286 -0.14669 -2.33478 0 0 0 -2.97241 -0.176242 -4.71844 -0.663122 -0.607373 -9.51411 0 0 0 
0.00609106 1.05674 -1.81446 -0.0770019 -1.78349 1.38316 0.352801 0.130358 0.0309664 0 0 0 62.4791 -2.76288 31.5243 -6.55218e-06 22.5893 4.32651e-07 0 0 0 -60.3294 -0.539595 32.9994 -0.221872 -19.6821 0.00393229 0 0 0 0.995301 0.0716545 3.66096 -3.36854 -0.109253 -2.42838 0 0 0 -2.6961 -0.0636599 -2.08545 -0.263379 -0.672343 -11.7826 0 0 0 
0.00779962 1.05663 -1.81379 0.31623 -3.55153 0.944886 -0.344029 0.480471 -0.363201 0 0 0 63.1007 -1.55144 37.713 -7.20106e-06 23.2545 -3.22506e-06 0 0 0 -59.6021 1.37989 32.1931 -1.13105 -20.2019 0.279562 0 0 0 0.370999 0.0967295 3.99659 -3.56467 -0.121731 -2.27473 0 0 6.67011e-09 -3.35709 0.0266161 0.993945 0.425017 -0.755945 -14.5811 2.66804e-08 4.26887e-07 8.53774e-07 
0.00779962 1.05663 -1.81308 -0.522854 -3.31744 0.559883 1.02695 -0.325128 0.245807 0 0 0 62.1213 -0.59712 42.0662 1.28635e-05 24.3332 8.01367e-06 0 0 0 -59.6413 1.86457 31.6226 -1.91525 -21.0147 0.482115 0 0 0 1.24755 0.206389 4.24915 -5.36259 -0.114336 -1.40896 0 0 0 -2.6852 -0.671587 3.65567 8.54509 0.711513 -7.54067 0 0 0 
0.0117348 1.05674 -1.8125 -0.390472 -4.33658 0.202409 0.0715498 0.688456 -0.636904 0 0 0 63.29 -1.2815 42.8747 1.49921e-07 23.4206 1.77492e-06 0 0 0 -59.2675 2.99201 32.2327 -1.44685 -20.8837 0.466127 0 0 0 1.53371 0.196346 4.39403 -5.94635 -0.0659892 -0.851602 0 0 0 -0.844405 -0.253352 5.00325 4.82073 0.414517 -5.91223 0 0 0 
0.011835 1.06126 -1.81112 -2.94842 -4.20597 -0.427504 -1.35154 -0.0434961 -0.0988559 0 0 0 68.181 0.244144 46.8611 -1.22352e-05 22.5617 -1.11465e-05 0 0 0 -56.4332 3.72175 31.8175 0.698642 -21.1549 0.0800785 0 0 0 5.62214 -0.0944659 5.30279 -7.52981 -0.00695243 -0.354798 -1.59028e-15 4.26887e-07 -4.26887e-07 3.54415 -0.575536 6.16671 1.7316 0.685607 -6.34513 0 0 0 
0.0155886 1.06128 -1.81032 -3.83844 -3.2784 -0.872265 -0.0239138 -0.867092 0.354086 0 4.28554e-07 0 67.5688 0.16914 47.6176 -4.28315e-06 22.8989 -6.09414e-06 0 0 0 -58.1612 4.14669 31.8609 3.32224 -21.5113 -0.397888 0 0 0 7.50694 0.0266166 5.63184 -9.41712 0.0255375 0.860008 0 0 0 5.60948 -0.638015 6.42197 -0.669774 0.400349 -4.3485 -1.06722e-07 -3.10601e-18 -3.33505e-09 
0.0173946 1.06187 -1.8101 -4.37969 -3.14573 -0.871251 0.00544266 -0.132308 -0.0961916 0 0 0 68.8958 -1.5371 40.9463 7.58303e-06 23.004 -1.99484e-07 0 0 0 -56.4545 4.05328 26.9987 -2.20682e-06 -23.6593 2.20682e-06 0 0 0 8.92826 0.547013 4.37569 -11.0395 0.228675 5.36528 0 0 0 6.35625 -0.678631 6.44842 -0.504029 0.610095 -6.03038 0 0 0 
0.030073 1.0633 -1.80991 -4.7057 -1.61626 -0.92145 0.00217144 -0.0485739 -0.0969174 0 0 0 67.1315 -2.822 46.6316 8.44516e-06 27.9948 3.4541e-07 0 0 0 -59.1927 1.63898 28.3013 2.78848 -20.0525 -0.268162 0 0 0 8.42237 0.395051 4.86517 -10.6056 0.20039 4.94275 0 0 0 5.42716 -0.896609 7.94159 1.44376 1.15439 -9.28895 0 3.33505e-09 0 
0.0332391 1.06343 -1.80975 -4.66874 -2.47268 -0.963839 -0.0131724 0.807213 -0.0907189 0 0 0 68.2832 -2.90232 41.319 1.76745e-06 25.7172 3.9064e-06 0 0 0 -58.3261 1.68366 28.3316 1.69309 -21.5018 -0.164342 0 0 0 7.32521 0.207287 5.00054 -9.19543 0.163845 4.79723 0 0 0 4.80684 -0.884723 8.85365 1.09527 1.19222 -11.0261 6.67011e-09 3.33505e-09 1.94126e-19 
0.0417214 1.06343 -1.80753 -4.40151 -1.57989 -1.3913 0.00366573 0.00651521 0.167233 0 0 6.67011e-09 67.7617 -2.66575 41.2581 -5.67775e-06 24.7843 3.99732e-06 0 -8.53774e-07 0 -59.391 0.950517 28.4984 2.23008 -21.0725 -0.25258 0 0 0 5.97297 -0.0303927 5.90988 -7.96845 0.110755 3.58762 0 0 0 3.72613 -0.976474 9.24716 2.63032 1.45532 -11.9435 -3.33505e-09 -4.85314e-20 -1.66753e-09 
0.0419232 1.06343 -1.80753 -4.76682 -1.58743 -1.26956 0.00124622 -0.0550977 -0.0473511 -1.66753e-09 1.13392e-07 1.06722e-07 69.3805 -1.94886 43.655 1.00309e-05 23.5795 2.09369e-06 0 0 0 -58.9664 0.767338 28.5057 1.61712 -21.2149 -0.102798 0 0 0 6.1597 -0.0651281 6.01845 -7.76487 0.0944765 3.11527 0 0 0 3.90996 -0.996037 9.40367 2.80684 1.52479 -12.4905 -3.96016e-16 1.06722e-07 -4.25219e-07 
0.0489116 1.05955 -1.80753 -5.38177 -1.58637 -1.26795 0.00639608 -0.265268 -0.0512462 0 0 0 69.5399 -1.93429 45.5558 2.74805e-06 24.3423 5.927e-07 0 0 0 -58.1061 0.996253 28.3495 1.62329 -21.486 -0.168823 0 0 0 6.28575 -0.233033 6.33899 -7.10617 0.0307532 2.06904 4.26887e-07 0 0 4.42935 -1.06845 9.46271 2.50643 1.60676 -12.574 0 0 0 
0.0552891 1.05698 -1.80753 -6.13571 -1.57444 -0.135845 0.0281685 -0.0296435 0.340366 0 0 0 70.9038 -1.13198 38.8948 7.74203e-06 23.3753 1.60156e-06 0 0 0 -57.3249 0.190301 24.5329 -4.52398e-06 -22.7502 7.87719e-06 0 0 0 6.56291 -0.102186 4.36124 -6.68947 -0.0290604 3.56904 4.33557e-07 -2.66804e-08 -8.53774e-07 4.7678 -1.00286 7.52276 2.63676 1.55852 -10.6549 0 0 0 
0.0568298 1.05635 -1.80774 -5.92396 -1.6286 0.047403 -0.032433 0.195436 0.046392 0 0 0 71.3257 -1.49661 36.008 1.82129e-06 23.3403 3.76181e-07 0 0 0 -56.733 0.0368967 27.2695 1.41489e-05 -23.0285 -6.36753e-06 0 0 0 6.87973 0.0576827 4.16488 -8.08682 0.00930976 3.84736 0 0 0 4.29929 -0.999176 7.26833 2.82097 1.58324 -10.5488 0 0 0 
0.0641769 1.05549 -1.80774 -7.05066 -1.63131 0.314193 0.00268655 -0.162271 -0.0719668 4.85314e-20 -8.33763e-10 -6.67011e-09 70.232 -1.14038 40.1732 -9.37163e-06 24.0288 -1.99447e-06 0 0 0 -58.0318 0.51343 26.9038 2.23109 -22.21 0.0255389 0 0 0 8.33683 0.421832 3.93714 -10.1035 0.144296 4.5147 0 0 0 5.90943 -0.906462 7.05837 1.46562 1.43515 -10.6298 0 0 0 
0.0685274 1.05635 -1.80744 -6.79863 -1.65349 0.392214 0.678258 -0.285481 -0.294023 0 0 0 69.0046 -0.674287 42.4801 6.34745e-07 24.5986 -5.10459e-06 0 0 0 -60.2039 0.849581 26.8528 4.0458 -21.9141 -0.213123 0 0 0 7.93547 0.589673 3.90025 -10.9825 0.196098 3.74416 0 0 0 5.56974 -0.782751 6.66014 1.02502 1.22512 -10.0157 0 1.06722e-07 0 
0.0736254 1.05695 -1.80635 -6.47385 -1.80716 0.328737 0.201272 -0.162032 -0.110934 0 0 0 69.5497 -0.454313 40.0703 -4.39784e-06 23.3899 -4.39784e-06 0 0 0 -59.4137 0.667608 22.0851 9.07346e-06 -22.6967 -1.82102e-06 0 0 0 6.3115 0.49338 3.92611 -10.0826 0.211748 3.68027 0 0 0 3.97621 -0.737304 6.78742 1.92506 1.18057 -10.0894 0 0 0 
0.0756508 1.05695 -1.80624 -6.13838 -2.59005 0.479303 -0.91952 -0.102721 -0.0424307 4.26887e-07 2.13443e-07 7.95139e-16 71.3409 0.614454 40.6744 -0.929347 21.0758 -0.199074 -2.98821e-06 4.45278e-14 1.70755e-06 -58.6685 1.63467 21.8007 -2.52588e-06 -23.6473 -1.21579e-06 0 0 0 5.38766 0.341165 5.1077 -9.68055 0.0428275 0.581266 -6.67011e-09 2.13443e-07 -4.26887e-07 4.22293 -0.576244 6.85565 0.399505 0.887899 -10.3099 0 0 0 
0.0759734 1.05779 -1.80479 -6.8986 -3.65494 0.357733 0.693714 0.528888 0.454609 0 0 0 70.4533 1.92271 40.9777 0.0833297 19.4944 -0.0403928 0 0 0 -59.2966 2.07273 23.6591 -2.51817e-06 -24.2845 5.41792e-07 0 0 0 5.90152 0.397776 5.21579 -9.88988 0.0462365 0.555157 0 0 0 4.46873 -0.687533 8.24016 0.994984 1.11893 -12.7998 0 0 0 
0.0786875 1.05779 -1.8046 -6.20372 -4.00078 0.579534 0.00461046 0.209793 0.000304861 0 0 0 71.2996 2.09379 41.6941 -0.91199 18.1051 -0.179708 0 0 0 -58.9289 3.37432 25.3649 -8.20384e-06 -24.6807 7.03858e-06 3.20165e-06 1.70755e-06 4.77083e-14 5.13451 0.429553 4.91527 -9.85368 0.0477191 0.56211 8.53774e-07 5.33609e-08 2.66804e-08 3.55047 -0.558781 8.09233 0.344789 0.912841 -12.9602 0 0 0 
0.0794593 1.05779 -1.8046 -6.15605 -4.0022 0.747887 -0.00198166 0.20248 0.029775 0 0 -1.33402e-08 72.0964 2.50304 41.6797 -1.66494 16.7739 -0.244603 0 0 0 -58.5142 3.0862 28.9933 1.02707e-05 -24.702 -3.99696e-06 0 0 0 5.50428 0.983341 1.91564 -10.704 0.535501 5.74823 1.33402e-08 9.93923e-17 -8.53774e-07 4.17891 -0.470591 7.96673 -1.12083 0.784933 -13.7678 0 0 0 
0.0850162 1.05736 -1.80428 -6.13981 -4.07134 0.888216 -0.0198408 0.272627 0.0196548 0 0 0 70.5848 2.85839 41.5632 0.422314 18.3417 -0.0129523 0 0 0 -58.6821 2.96593 30.4631 1.79284e-06 -25.1961 -2.15035e-06 4.26887e-07 -8.53774e-07 -3.18055e-15 4.72517 0.69272 1.71534 -8.0546 0.52837 8.14741 0 0 0 3.5152 -0.272685 6.68991 -1.15628 0.438658 -11.4434 0 0 0 
0.0944346 1.05675 -1.80012 -5.8585 -2.38784 0.865117 -0.0178901 0.000125998 -0.0173059 0 0 0 68.8913 0.68166 40.2245 0.8196 21.2186 0.13665 0 0 0 -61.1925 1.26619 31.4059 2.03839e-06 -22.4172 -4.0393e-07 0 0 0 3.14013 0.439946 2.34595 -6.50435 0.421498 7.60613 0 0 0 2.59793 -0.192875 6.62883 -1.44245 0.302396 -11.47 7.95139e-16 2.13443e-07 4.26887e-07 
0.0958206 1.05383 -1.7979 -5.87314 -1.46004 0.745028 0.17547 -0.117384 -0.0130597 4.26887e-07 0 0 68.3589 -0.727593 41.5176 -8.79647e-06 22.5528 1.72838e-06 0 0 0 -61.6506 1.02596 31.3126 -3.3059e-06 -22.49 2.39825e-06 0 0 0 3.06184 0.475219 1.70752 -6.24953 0.394622 8.4304 0 1.60083e-07 0 2.69122 -0.190993 6.27529 -1.86144 0.274982 -10.5177 3.33505e-09 -1.33402e-08 -3.88251e-19 
0.0975703 1.0538 -1.79537 -5.567 -1.33012 1.47283 -0.164829 -0.682018 -0.321859 0 2.10108e-07 0 68.7174 0.717392 41.7579 -0.271632 21.8371 -0.233707 0 0 0 -61.7175 1.70804 29.4136 7.34703e-06 -24.766 -1.61307e-06 0 0 0 3.24143 0.780082 0.645128 -7.82173 0.662729 8.66556 0 0 0 2.32155 -0.0822878 4.79782 -1.79516 0.13127 -8.684 0 0 0 
0.10103 1.05297 -1.79126 -5.4441 -2.8418 0.768344 0.379473 -0.00406147 0.325532 0 -3.33505e-09 0 67.6428 1.49579 39.9723 1.00671e-05 23.1264 5.54558e-06 0 0 0 -62.7966 2.80322 27.1839 3.73864e-06 -26.1323 8.8525e-07 0 0 0 2.743 1.02177 -0.162307 -7.70581 0.870624 12.173 0 0 0 1.55813 -0.209129 6.56288 -1.12203 0.246663 -9.27608 0 0 0 
0.102535 1.05265 -1.78782 -6.98488 -3.95005 0.548898 1.70472 0.42282 0.11161 0 0 0 66.5976 1.30122 40.2995 5.05237e-06 22.9269 4.50917e-06 0 0 0 -62.7842 3.21773 27.6935 -6.62593e-06 -27.093 3.35284e-06 0 0 0 3.35718 0.889074 -0.320938 -7.66372 0.87087 9.98775 0 0 0 2.06263 -0.146493 6.58432 -0.391875 0.148877 -7.61408 0 0 0 
0.103602 1.05075 -1.78337 -6.68012 -2.2152 0.881626 1.4295 -0.00745181 0.0578433 0 0 0 66.3019 0.993482 38.9674 0.41516 22.2131 0.105546 4.26887e-07 0 0 -62.4383 0.917592 27.9474 -6.56569e-06 -27.6126 -1.90325e-06 0 0 0 1.46317 0.586621 -2.7021 -4.68102 1.05055 12.6653 0 0 0 0.997763 0.00754973 5.93881 0.663518 0.0232413 -7.13412 0 0 0 
